<svg width="277" height="7" viewBox="0 0 277 7" fill="none" xmlns="http://www.w3.org/2000/svg">
<path d="M40.8948 3.59887L40.892 3.61201L29.9341 3.6977C16.6191 3.81673 2.97309 3.93356 0.163186 3.93046L0.15815 2.43048L0.164843 2.43046L29.9204 2.19776C33.5539 2.16527 37.163 2.13262 40.5207 2.10219C40.5262 2.09913 40.5316 2.09625 40.5366 2.09355C40.7313 1.99016 40.9611 1.95179 41.1493 1.95278C44.3892 1.91768 47.6296 1.88289 50.8697 1.84811C52.5357 1.83023 54.2016 1.81234 55.8674 1.79442L55.869 1.7944C57.0315 1.78426 58.2342 1.76911 59.4387 1.75394C60.6912 1.73816 61.9455 1.72236 63.1585 1.71214L63.1629 1.7121C65.0512 1.70726 66.9362 1.67909 68.8234 1.63959L68.8282 1.63949C69.5935 1.62837 70.3692 1.62864 71.1385 1.6289C71.6266 1.62907 72.1121 1.62923 72.5907 1.62649C72.5921 1.62648 72.5936 1.62647 72.5951 1.62646L74.302 1.59664L76.0178 1.56671L76.0263 1.56656C77.441 1.55821 78.8577 1.54605 80.2756 1.53388C82.7688 1.51248 85.2656 1.49105 87.761 1.48995C94.7149 1.38981 101.607 1.35202 108.533 1.31404C110.244 1.30466 111.957 1.29527 113.673 1.28492C115.942 1.26709 118.208 1.25249 120.474 1.23788C123.172 1.22049 125.869 1.2031 128.569 1.18029L128.572 1.18026C129.4 1.17704 130.228 1.18667 131.05 1.19623L131.254 1.1986C132.145 1.20886 133.028 1.21779 133.908 1.20947L133.909 1.20946C142.824 1.14371 151.75 1.19396 160.669 1.24417C164.049 1.2632 167.429 1.28222 170.806 1.29493L40.8948 3.59887ZM40.8948 3.59887C41.2934 3.59526 41.6884 3.59168 42.0792 3.58814C49.5781 3.52018 55.5719 3.46585 57.3328 3.45394L57.3363 3.4539C58.3038 3.4428 59.2746 3.43463 60.2467 3.42645C61.939 3.41222 63.6354 3.39795 65.3252 3.36812C65.929 3.36359 66.5365 3.36183 67.1461 3.36007C68.551 3.35601 69.9667 3.35192 71.3721 3.31372M40.8948 3.59887L215.13 3.43526L215.131 3.43528L215.139 2.80421C215.372 2.81018 215.606 2.81643 215.839 2.82298C217.087 2.85181 218.335 2.87751 219.584 2.90321C222.589 2.96507 225.594 3.02694 228.594 3.1324L228.587 3.73981C228.587 3.73981 228.588 3.73981 228.588 3.73981C228.675 3.74083 228.762 3.74209 228.849 3.74355C228.851 3.74359 228.854 3.74363 228.856 3.74367C229.58 3.75595 230.298 3.78278 231.025 3.80993C231.419 3.82464 231.816 3.83945 232.218 3.8521L232.221 3.85219C234.048 3.90151 235.867 3.95668 237.688 4.01189C239.219 4.05829 240.75 4.10472 242.288 4.14774C242.509 4.15448 242.731 4.16137 242.953 4.16839C242.953 4.1684 242.954 4.16841 242.954 4.16842C244.336 4.21221 245.718 4.26112 247.102 4.31011L247.313 4.3176L247.318 4.31774C247.804 4.33166 248.29 4.34483 248.775 4.35787C248.775 4.35787 248.775 4.35788 248.776 4.35789C248.872 4.36047 248.968 4.36305 249.064 4.36563C250.625 4.40753 252.182 4.44928 253.734 4.51121C253.735 4.51125 253.736 4.51129 253.737 4.51134C254.024 4.52278 254.311 4.53492 254.598 4.54787C255.074 4.57369 255.549 4.59133 256.023 4.60508C256.023 4.60509 256.024 4.6051 256.024 4.60511C256.449 4.61742 256.872 4.62661 257.293 4.63575C257.419 4.63848 257.544 4.6412 257.669 4.64401C258.281 4.66478 258.89 4.69128 259.5 4.71898C259.5 4.71901 259.501 4.71904 259.502 4.71907C259.643 4.72548 259.784 4.73196 259.926 4.73844C260.331 4.75702 260.738 4.77567 261.148 4.79309L261.154 4.79327C261.512 4.80596 261.874 4.82076 262.237 4.83636L262.234 4.92222L261.871 4.90968C261.078 4.88216 260.289 4.85482 259.499 4.83647L259.497 4.83642C258.333 4.80556 257.173 4.75532 256.02 4.69908L256.018 4.69902C255.544 4.67513 255.081 4.66588 254.605 4.65638C254.321 4.65071 254.032 4.64495 253.734 4.63593L253.73 4.63581C252.077 4.57709 250.425 4.51619 248.772 4.45274L248.771 4.4527C247.575 4.40519 246.382 4.37345 245.185 4.34155C244.443 4.32181 243.699 4.302 242.951 4.27836L242.949 4.27832C238.381 4.12745 233.808 4.01446 229.233 3.90142L228.852 3.89201L228.844 3.8918L228.844 3.89175C225.757 3.78047 222.669 3.7169 219.574 3.65318C218.325 3.62745 217.074 3.6017 215.822 3.57278L215.818 3.57269C213.487 3.50719 211.162 3.47235 208.831 3.43743C207.297 3.41444 205.761 3.39141 204.218 3.35957L204.218 3.35957C197.243 3.2143 190.266 3.10147 183.293 3.07103M71.3721 3.31372C71.3717 3.31373 71.3713 3.31374 71.3709 3.31375L71.3665 3.12902M71.3721 3.31372C71.3726 3.3137 71.3732 3.31369 71.3737 3.31368L71.3686 3.12902M71.3721 3.31372C72.3816 3.29001 73.3729 3.28767 74.3732 3.28531C75.1278 3.28352 75.8875 3.28173 76.6638 3.27075L76.6668 3.27069C79.0712 3.22701 81.4786 3.19609 83.8868 3.17217L83.8973 3.17191C86.8905 3.09995 89.8915 3.08039 92.9006 3.07581M71.3665 3.12902C71.3672 3.12902 71.3679 3.12902 71.3686 3.12902M71.3665 3.12902L71.3533 2.56395M71.3665 3.12902L71.3533 2.56395M71.3686 3.12902C71.7772 3.12911 72.1882 3.12885 72.6037 3.12649L72.6124 3.12634L74.3282 3.09641L76.0352 3.06658L71.3686 3.12902ZM92.9006 3.07581C94.8909 3.07708 96.8797 3.05383 98.8629 3.03065C99.4205 3.02413 99.9777 3.01762 100.534 3.01165L100.535 3.01165C102.295 2.99152 104.047 2.97985 105.802 2.96817C107.262 2.95845 108.724 2.94872 110.193 2.93409L110.194 2.93408C111.494 2.91899 112.788 2.91388 114.084 2.90876C115.056 2.90492 116.03 2.90108 117.009 2.89302M92.9006 3.07581C92.9003 3.07581 92.9 3.07581 92.8998 3.0758L92.8999 2.92634M92.9006 3.07581C92.9009 3.07581 92.9011 3.0758 92.9014 3.0758L92.9012 2.92633C95.4483 2.89941 97.9904 2.87883 100.533 2.8615C100.533 2.8615 100.533 2.8615 100.533 2.8615C103.199 2.84332 105.866 2.82869 108.538 2.81404C109.089 2.81102 109.64 2.808 110.191 2.80494C110.192 2.80494 110.192 2.80494 110.192 2.80494C111.354 2.7985 112.517 2.79192 113.683 2.78489L113.684 2.78488C114.791 2.77618 115.899 2.76824 117.008 2.76069L117.009 2.89303C117.009 2.89303 117.009 2.89302 117.009 2.89302M117.009 2.89302C117.413 2.89014 117.815 2.88666 118.217 2.88318C119.462 2.87242 120.7 2.86171 121.942 2.86907L121.945 2.86908C122.348 2.87006 122.751 2.87119 123.154 2.87232C126.333 2.88122 129.521 2.89015 132.701 2.82422M117.009 2.89302C117.009 2.89302 117.01 2.89302 117.01 2.89302L117.009 2.76068C118.165 2.7528 119.322 2.74534 120.479 2.73788C120.967 2.73473 121.455 2.73158 121.943 2.72841C121.943 2.7284 121.944 2.7284 121.945 2.72839C124.157 2.71398 126.37 2.69891 128.58 2.68025M132.701 2.82422C134.894 2.81193 137.083 2.82368 139.276 2.83545C140.685 2.84302 142.096 2.8506 143.512 2.85182L143.514 2.85181C149.118 2.83816 154.724 2.8566 160.332 2.8809L160.334 2.8809L160.86 2.88175C165.254 2.88877 169.643 2.89578 174.031 2.9698L174.031 2.96982L174.037 2.96988C174.621 2.97498 175.202 2.97826 175.781 2.98153C176.683 2.98663 177.581 2.9917 178.483 3.00358M132.701 2.82422C132.699 2.82423 132.698 2.82424 132.696 2.82425L132.695 2.71159M132.701 2.82422C132.703 2.82418 132.705 2.82414 132.707 2.8241L132.705 2.71163C133.11 2.71348 133.515 2.71324 133.921 2.70942M178.483 3.00358C178.982 3.01088 179.483 3.01983 179.985 3.0288C181.085 3.04844 182.19 3.0682 183.293 3.07103M178.483 3.00358C178.483 3.00357 178.483 3.00357 178.483 3.00357L178.485 2.86346M178.483 3.00358C178.484 3.00358 178.484 3.00358 178.484 3.00358L178.486 2.86346C180.088 2.86324 181.691 2.8718 183.293 2.88888L183.292 3.07103C183.292 3.07103 183.293 3.07103 183.293 3.07103M183.293 3.07103C183.293 3.07104 183.293 3.07104 183.294 3.07104L183.294 2.88889C185.346 2.91077 187.397 2.94663 189.449 2.99593L189.453 2.99601C192.127 3.04468 194.8 3.08228 197.47 3.11984C199.721 3.15151 201.971 3.18317 204.221 3.22142C204.221 3.22143 204.221 3.22143 204.221 3.22143C206.517 3.26049 208.813 3.30645 211.108 3.36634L211.109 3.36636C212.391 3.39812 213.674 3.41552 214.951 3.43284L215.128 3.43524L215.139 2.8042C213.801 2.76995 212.463 2.74473 211.125 2.72279C211.125 2.72279 211.125 2.72279 211.125 2.72279C210.361 2.71027 209.597 2.69882 208.833 2.68736C207.3 2.66437 205.766 2.64137 204.233 2.60973C199.312 2.50723 194.388 2.42084 189.464 2.36815C189.464 2.36815 189.464 2.36815 189.464 2.36814C187.408 2.34614 185.351 2.33001 183.295 2.32104C182.199 2.31822 181.102 2.29863 180.006 2.27904C179.502 2.27003 178.998 2.26103 178.494 2.25365M178.494 2.25365C178.4 2.25241 178.306 2.25125 178.212 2.25016C178.212 2.25015 178.211 2.25014 178.211 2.25013C177.401 2.24068 176.591 2.2361 175.78 2.23151C175.202 2.22824 174.623 2.22496 174.044 2.21991C172.964 2.20168 171.883 2.18752 170.803 2.17641C167.489 2.14233 164.176 2.13704 160.863 2.13175L160.335 2.13091C154.727 2.10661 149.119 2.08816 143.513 2.10182C142.104 2.10061 140.696 2.09305 139.287 2.0855C137.496 2.07589 135.706 2.06629 133.916 2.06972L133.922 2.70941C133.922 2.70941 133.921 2.70941 133.921 2.70942M178.494 2.25365L178.485 2.86346M178.494 2.25365L178.485 2.86346M133.921 2.70942C133.921 2.70942 133.921 2.70942 133.921 2.70942L133.916 2.06972C133.508 2.07051 133.1 2.07197 132.692 2.07426M133.921 2.70942C137.117 2.68585 140.314 2.6772 143.512 2.67812C143.513 2.67812 143.513 2.67812 143.514 2.67812C149.118 2.67974 154.724 2.71075 160.333 2.74231C160.333 2.74231 160.334 2.74232 160.334 2.74232C160.44 2.74291 160.546 2.74351 160.651 2.7441C164.034 2.76314 167.417 2.78219 170.801 2.79492L170.801 2.79492C171.879 2.79843 172.956 2.80563 174.034 2.8154C174.036 2.81541 174.037 2.81542 174.039 2.81544C175.426 2.82802 176.814 2.84487 178.202 2.8636L178.213 2.86359C178.304 2.86352 178.394 2.86348 178.485 2.86346M132.692 2.07426C131.321 2.10271 129.949 2.11721 128.577 2.12379L128.582 2.68023C128.581 2.68024 128.58 2.68024 128.58 2.68025M132.692 2.07426L132.695 2.71159M132.692 2.07426L132.695 2.71159M128.58 2.68025C128.579 2.68025 128.579 2.68025 128.578 2.68025L128.576 2.12379C126.771 2.13244 124.964 2.12738 123.157 2.12232C122.753 2.12119 122.35 2.12006 121.946 2.11908C120.699 2.11168 119.453 2.12246 118.207 2.13324C117.806 2.13671 117.405 2.14018 117.003 2.14305C116.032 2.15104 115.06 2.15489 114.088 2.15874C113.952 2.15927 113.815 2.15981 113.679 2.16037C113.679 2.16037 113.679 2.16037 113.679 2.16037C112.514 2.16508 111.349 2.17062 110.185 2.18413C108.724 2.19868 107.263 2.20842 105.801 2.21815C104.043 2.22987 102.284 2.24159 100.526 2.2617C99.968 2.26768 99.4097 2.2742 98.8514 2.28073C96.8687 2.30391 94.8858 2.32708 92.9003 2.32581M128.58 2.68025C129.395 2.67708 130.211 2.68658 131.035 2.69615L131.237 2.6985C131.721 2.70408 132.208 2.70933 132.695 2.71159M92.9003 2.32581C91.1883 2.32841 89.4774 2.33586 87.7682 2.35507C87.7677 2.35507 87.7671 2.35508 87.7666 2.35508C86.4698 2.36966 85.174 2.391 83.8793 2.42213C81.4698 2.44614 79.0601 2.47708 76.6532 2.52082C76.4471 2.52374 76.2408 2.526 76.0345 2.52778L76.0438 3.06648L76.0396 3.06656C76.2467 3.06533 76.4538 3.06401 76.6609 3.06264C76.6616 3.06263 76.6623 3.06263 76.6631 3.06262C77.8763 3.05454 79.0878 3.04414 80.2984 3.03375C81.4944 3.02348 82.6897 3.01321 83.8851 3.00521C83.8878 3.00519 83.8906 3.00517 83.8933 3.00515C85.1838 2.99652 86.4746 2.99054 87.7669 2.99002L87.7774 2.98987C89.4882 2.96523 91.1952 2.94436 92.8999 2.92634M92.9003 2.32581L92.8999 2.92634M92.9003 2.32581L92.8999 2.92634M262.239 4.83642L262.236 4.92228L262.235 4.92225C262.763 4.94153 263.257 4.95438 263.746 4.96711C264.291 4.98129 264.83 4.99532 265.405 5.01793L265.405 5.01797L265.413 5.0182C265.701 5.02642 266.021 5.04329 266.351 5.06074C266.842 5.0867 267.357 5.11394 267.829 5.1158L267.831 5.11581C268.338 5.11658 268.845 5.13349 269.366 5.15114L269.393 5.15203C269.895 5.16906 270.41 5.18652 270.929 5.18864M262.239 4.83642L274.572 3.8265M262.239 4.83642C262.443 4.84516 262.647 4.85415 262.852 4.86317C263.7 4.90045 264.555 4.93808 265.408 4.95984C265.41 4.95991 265.412 4.95997 265.415 4.96003C265.565 4.96385 265.715 4.96717 265.865 4.96991L262.239 4.83642ZM270.929 5.18864C271.014 5.19357 271.102 5.19905 271.192 5.20464C271.577 5.22866 271.996 5.25483 272.414 5.2498M270.929 5.18864C270.922 5.18825 270.916 5.18788 270.909 5.1875L270.912 5.14083L274.534 5.34527C274.518 5.3447 274.502 5.34384 274.486 5.34257L274.357 5.33253L274.355 5.38621C274.354 5.38619 274.354 5.38617 274.354 5.38616C274.218 5.37909 274.111 5.3644 274.018 5.34802M270.929 5.18864C270.936 5.18866 270.942 5.18869 270.949 5.18871L270.949 5.14273L270.955 5.143L270.974 5.14397L270.993 5.14397C271.495 5.14399 271.964 5.14546 272.412 5.18369L272.413 5.24981C272.413 5.2498 272.414 5.2498 272.414 5.2498M272.414 5.2498C272.563 5.24854 272.716 5.25903 272.897 5.2736L272.955 5.27835C273.106 5.29065 273.28 5.30476 273.458 5.31012M272.414 5.2498C272.414 5.24979 272.415 5.24978 272.415 5.24978L272.414 5.18388C272.475 5.18904 272.535 5.19486 272.594 5.20142L272.643 5.20682L272.692 5.20577C272.934 5.2006 273.156 5.21443 273.411 5.23029C273.416 5.23059 273.421 5.2309 273.426 5.23121L273.416 5.30535C273.421 5.30594 273.436 5.30773 273.458 5.31012M273.458 5.31012C273.529 5.31781 273.67 5.3317 273.755 5.3316L273.765 5.33159L273.775 5.33132L273.912 5.32755M273.458 5.31012C273.47 5.31046 273.481 5.31077 273.493 5.31104L273.494 5.23546C273.577 5.24053 273.663 5.24561 273.755 5.25019C273.757 5.25027 273.758 5.25036 273.76 5.25044C273.763 5.2511 273.768 5.25191 273.772 5.25287C273.775 5.25332 273.777 5.2538 273.779 5.25431C273.793 5.25705 273.806 5.26004 273.817 5.26267L273.83 5.26584C273.832 5.26633 273.833 5.2666 273.834 5.26666L273.838 5.26796L273.83 5.31057C273.845 5.31367 273.861 5.31688 273.876 5.32015C273.888 5.32259 273.9 5.32506 273.912 5.32755M273.912 5.32755C273.946 5.33438 273.981 5.34134 274.018 5.34802M273.912 5.32755L273.987 5.32553C273.997 5.3335 274.008 5.34099 274.018 5.34802M274.018 5.34802C274.105 5.40597 274.182 5.43246 274.214 5.44299C274.3 5.47141 274.376 5.4803 274.421 5.48379C274.508 5.49047 274.6 5.48555 274.686 5.46922M274.686 5.46922C274.693 5.46784 274.7 5.46695 274.715 5.46497C274.726 5.46354 274.741 5.46156 274.763 5.45843C274.804 5.45275 274.884 5.44144 274.969 5.41761L274.989 5.41203L275.009 5.40536C275.067 5.38557 275.134 5.35621 275.202 5.31279C275.254 5.27969 275.382 5.19097 275.474 5.02399C275.525 4.93099 275.577 4.78968 275.567 4.6146C275.557 4.4309 275.483 4.27573 275.388 4.16251C275.346 4.11347 275.302 4.07353 275.258 4.04102M274.686 5.46922C274.69 5.46846 274.694 5.46768 274.697 5.46687L274.684 5.40248M274.686 5.46922L274.684 5.40248M275.258 4.04102C275.157 3.95735 275.054 3.91373 275 3.8955C274.876 3.85292 274.762 3.8484 274.726 3.84693C274.709 3.84625 274.691 3.84594 274.675 3.84582M275.258 4.04102C275.38 4.14076 275.499 4.29741 275.53 4.53582L275.166 4.5832M275.258 4.04102C275.131 3.94633 275.007 3.91462 274.965 3.90416L274.94 4.00492L274.906 3.97233L274.868 3.96152L274.885 3.92679L274.883 3.92577L274.868 3.91781C274.853 3.91042 274.829 3.89836 274.798 3.88574C274.759 3.87008 274.718 3.85655 274.675 3.84582M274.675 3.84582C274.642 3.83766 274.608 3.83112 274.572 3.8265M274.675 3.84582C274.65 3.84565 274.629 3.84594 274.616 3.84611L274.61 3.8462C274.596 3.84635 274.59 3.84629 274.589 3.8463C274.588 3.84631 274.594 3.84642 274.603 3.84711L274.6 3.88732L274.565 3.87767M274.572 3.8265L274.565 3.87767M274.572 3.8265L274.565 3.87767M274.565 3.87767L274.596 5.34634M274.562 3.87694L274.569 3.82613L274.489 3.81561L274.425 3.8073C274.388 3.80251 274.346 3.79746 274.299 3.79448C274.252 3.79154 274.21 3.79128 274.174 3.79125C274.157 3.79124 274.141 3.79128 274.125 3.79132C274.121 3.79133 274.116 3.79134 274.111 3.79136C274.103 3.78954 274.094 3.78773 274.086 3.78595C274.05 3.77838 273.95 3.75756 273.854 3.75325L274.562 3.87694ZM274.562 3.87694L274.56 3.87622L274.43 3.88539L274.418 3.8863L274.41 3.88691C274.337 3.88226 274.295 3.87447 274.206 3.85634L274.562 3.87694ZM274.596 5.34634L274.595 5.35782C274.597 5.35856 274.6 5.35919 274.602 5.35973L274.595 5.3579L274.585 5.42171C274.586 5.42169 274.615 5.42201 274.668 5.4073L274.669 5.40692C274.67 5.40677 274.67 5.40659 274.671 5.40638L274.66 5.34576M274.596 5.34634C274.602 5.34633 274.607 5.3463 274.612 5.34626C274.618 5.34621 274.623 5.34614 274.627 5.3461L274.66 5.34576M274.596 5.34634L274.598 5.33708M274.66 5.34576L274.667 5.34579L274.666 5.34574C274.665 5.34571 274.663 5.34563 274.66 5.34542M274.66 5.34576L274.66 5.34542M274.66 5.34542L274.639 5.23356L274.625 5.15741M274.66 5.34542C274.654 5.34502 274.643 5.34417 274.63 5.34236C274.626 5.34179 274.62 5.34099 274.613 5.33988C274.609 5.33911 274.603 5.33819 274.598 5.33708M274.625 5.15741L274.629 5.13234M274.625 5.15741L274.598 5.33708M274.625 5.15741L274.568 4.84588L274.548 4.73201M274.629 5.13234L274.645 5.21L274.684 5.40248M274.629 5.13234L274.694 4.71055C274.674 4.71374 274.653 4.7165 274.633 4.71926C274.61 4.7223 274.587 4.72534 274.565 4.72898C274.559 4.72995 274.553 4.73095 274.548 4.73201M274.629 5.13234L274.568 4.83221L274.548 4.73201M274.684 5.40248C274.722 5.39088 274.815 5.35709 274.911 5.27866C274.916 5.27448 274.921 5.26995 274.927 5.26505C274.935 5.2578 274.944 5.24975 274.953 5.24089C275.018 5.17807 275.102 5.07421 275.147 4.92163C275.182 4.80218 275.185 4.68682 275.166 4.5832M275.166 4.5832L274.786 4.63268L274.815 4.51677M275.166 4.5832C275.152 4.50442 275.126 4.43242 275.094 4.37058L274.815 4.51677M274.664 4.59576C274.68 4.59578 274.697 4.59612 274.711 4.5972L274.716 4.56861M274.664 4.59576L274.935 4.02299L274.907 4.14118M274.664 4.59576L274.716 4.56861M274.664 4.59576L274.671 4.34747L274.673 4.35554L274.701 4.45742L274.722 4.5302M274.716 4.56861L274.723 4.56464M274.716 4.56861L274.718 4.55049L274.723 4.56464M274.723 4.56464L274.735 4.59987C274.737 4.6002 274.739 4.60055 274.741 4.60094L274.73 4.56102M274.723 4.56464L274.73 4.56102M274.73 4.56102L274.815 4.51677M274.73 4.56102L274.722 4.53335M274.815 4.51677L274.827 4.46747M274.827 4.46747L275.063 4.31789C275.031 4.26671 274.996 4.2244 274.961 4.18973C274.942 4.1715 274.924 4.15538 274.907 4.14118M274.827 4.46747L274.872 4.28077L274.907 4.14118M274.827 4.46747L274.722 4.53335M274.907 4.14118C274.881 4.12058 274.857 4.10404 274.837 4.09099C274.827 4.08524 274.819 4.07987 274.81 4.07485L274.784 4.12604L274.739 4.41881L274.722 4.5302M274.722 4.53335L274.722 4.5302M274.722 4.53335L274.721 4.5343L274.722 4.5302M274.548 4.73201L274.598 5.33708M71.3533 2.56395C70.518 2.58667 69.6811 2.59725 68.8435 2.60294L68.8548 3.13926L71.3533 2.56395ZM274.026 3.82389L273.958 3.82574L273.853 3.82862L273.856 3.75336C273.767 3.74909 273.671 3.74309 273.569 3.73676C273.304 3.72032 273.003 3.70167 272.71 3.70528C272.134 3.64512 271.55 3.64401 271.012 3.64397L270.654 3.62593L270.278 3.60697L270.278 3.60692L270.27 3.60659C269.978 3.59495 269.696 3.58684 269.419 3.57886C268.927 3.56472 268.451 3.55102 267.965 3.5189C267.559 3.4912 267.099 3.48718 266.67 3.48342C266.398 3.48104 266.138 3.47876 265.912 3.47063L265.912 3.47052L265.899 3.47027C264.909 3.45229 263.935 3.40936 262.95 3.36594C262.375 3.34061 261.797 3.31512 261.209 3.29431C260.811 3.27741 260.41 3.25904 260.007 3.2406C259.246 3.20573 258.48 3.17062 257.716 3.14472L257.716 3.14467L257.707 3.14448C257.579 3.14161 257.451 3.13883 257.324 3.13606C256.429 3.11662 255.553 3.09757 254.676 3.04989L254.676 3.04986L254.669 3.04955C252.813 2.96568 250.95 2.91567 249.095 2.8659C248.517 2.85039 247.94 2.83491 247.364 2.81843C247.363 2.81841 247.362 2.81838 247.361 2.81836L247.153 2.81098C245.548 2.75415 243.941 2.69727 242.332 2.64839L242.33 2.64834C240.804 2.60564 239.272 2.55922 237.74 2.51277C235.913 2.4574 234.085 2.40199 232.263 2.35278C231.881 2.34075 231.495 2.32634 231.106 2.31184C230.278 2.28096 229.439 2.24965 228.605 2.23991L228.604 2.2399C226.092 2.21403 223.607 2.14586 221.114 2.07749C219.137 2.02328 217.156 1.96894 215.153 1.93545L215.151 1.93542L214.974 1.93301C213.695 1.91566 212.42 1.89837 211.147 1.86683C206.597 1.74811 202.034 1.6839 197.476 1.61976C194.808 1.58222 192.143 1.5447 189.483 1.4963C185.728 1.40611 181.973 1.36076 178.217 1.36358C175.748 1.33037 173.278 1.30299 170.806 1.29493L274.026 3.82389ZM273.756 3.83125L273.748 3.83074C273.732 3.82961 273.712 3.8279 273.69 3.82584C273.668 3.82382 273.646 3.82169 273.629 3.8199C273.616 3.81846 273.608 3.81755 273.605 3.81722L273.604 3.81713L273.566 3.81234L273.528 3.81144C273.383 3.80807 273.242 3.79662 273.076 3.78319L273.017 3.77843C272.934 3.77177 272.846 3.7649 272.753 3.75954L273.756 3.83125ZM275.043 4.10472L275.041 4.10316C275.045 4.10661 275.047 4.10853 275.047 4.10828C275.046 4.10811 275.045 4.10699 275.043 4.10472ZM274.691 4.46844L274.714 4.53846L274.623 4.59609C274.612 4.59623 274.601 4.59635 274.59 4.59632C274.582 4.5963 274.574 4.59621 274.567 4.596C274.565 4.59594 274.563 4.59587 274.561 4.5958L274.56 4.56368L274.658 4.37227L274.662 4.38558L274.691 4.46844ZM274.564 4.34457L274.557 4.4373L274.555 4.37673L274.545 4.04064L274.58 4.14188L274.564 4.34457ZM228.871 3.14224C228.779 3.13892 228.687 3.13565 228.595 3.13241L232.238 3.22583C232.238 3.22582 232.238 3.22582 232.237 3.22581C231.242 3.20084 230.247 3.17626 229.252 3.15167L228.871 3.14224Z" fill="#FFA900" stroke="#FFA900" stroke-width="1.5"/>
</svg>
